<?xml version="1.0" encoding="utf-8"?>
<!-- Generator: Adobe Illustrator 23.0.1, SVG Export Plug-In . SVG Version: 6.00 Build 0)  -->
<svg version="1.1" id="Layer_1" xmlns="http://www.w3.org/2000/svg" xmlns:xlink="http://www.w3.org/1999/xlink" x="0px" y="0px"
	 viewBox="0 0 438.63 172.8" style="enable-background:new 0 0 438.63 172.8;" xml:space="preserve">
<style type="text/css">
	.st0{fill:#FFFFFF;}
</style>
<g>
	<g id="Arbo_Products">
		<g>
			<path class="st0" d="M158.3,114.06h-9.12l-0.48,0.48v12.48l-0.48,0.48h-5.76l-0.48-0.48V94.38l0.48-0.48h15.84
				c6.72,0,11.52,3.36,11.52,10.08C169.82,110.7,165.02,114.06,158.3,114.06 M158.3,99.66h-9.12l-0.48,0.48v7.68l0.48,0.48h9.12
				c2.88,0,4.8-0.96,4.8-4.32C163.1,100.62,161.18,99.66,158.3,99.66"/>
			<path class="st0" d="M195.26,113.58v0.48l6.24,8.16v4.8l-0.48,0.48h-2.88l-0.96-0.48l-9.6-12.48l-0.96-0.48h-4.8l-0.48,0.48
				v12.48l-0.48,0.48h-5.76l-0.48-0.48V94.38l0.48-0.48h15.84c6.72,0,11.52,3.36,11.52,10.08
				C202.46,109.26,199.1,112.62,195.26,113.58 M190.94,99.66h-9.12l-0.48,0.48v7.68l0.48,0.48h9.12c2.88,0,4.8-0.96,4.8-4.32
				C195.74,100.62,193.82,99.66,190.94,99.66"/>
			<path class="st0" d="M222.62,127.98c-10.08,0-16.32-7.2-16.32-17.28c0-10.08,6.24-17.28,16.32-17.28
				c10.08,0,16.32,7.2,16.32,17.28C238.94,120.78,232.7,127.98,222.62,127.98 M222.62,99.18c-6.24,0-9.6,4.8-9.6,11.52
				s3.36,11.52,9.6,11.52c6.24,0,9.6-4.8,9.6-11.52S228.86,99.18,222.62,99.18"/>
			<path class="st0" d="M255.74,127.5h-10.56l-0.48-0.48V94.38l0.48-0.48h10.56c12,0,16.32,6.24,16.32,16.8
				C272.06,121.26,267.74,127.5,255.74,127.5 M256.22,99.66h-4.32l-0.48,0.48v21.12l0.48,0.48h4.32c6.72,0,9.12-3.36,9.12-11.04
				S262.94,99.66,256.22,99.66"/>
			<path class="st0" d="M304.7,114.54c0,8.64-4.8,13.44-13.44,13.44c-8.64,0-13.44-4.8-13.44-13.44V94.38l0.48-0.48h5.76l0.48,0.48
				v20.16c0,4.8,1.92,7.68,6.72,7.68c4.8,0,6.72-2.88,6.72-7.68V94.38l0.48-0.48h5.76l0.48,0.48V114.54z"/>
			<path class="st0" d="M333.98,117.42l0.48-0.48h5.76l0.48,0.48c-0.96,6.72-6.24,10.56-13.92,10.56c-10.56,0-16.32-7.2-16.32-17.28
				c0-10.08,5.76-17.28,16.32-17.28c7.68,0,12.96,3.84,13.92,10.08l-0.48,0.48h-5.76l-0.48-0.48c-0.96-2.88-3.36-4.32-7.2-4.32
				c-6.72,0-9.6,4.8-9.6,11.52c0,6.72,2.88,11.52,9.6,11.52C330.62,122.22,333.02,120.78,333.98,117.42"/>
			<polygon class="st0" points="369.98,99.66 360.38,99.66 359.9,100.14 359.9,127.02 359.42,127.5 353.66,127.5 353.18,127.02 
				353.18,100.14 352.7,99.66 343.1,99.66 342.62,99.18 342.62,94.38 343.1,93.9 369.98,93.9 370.46,94.38 370.46,99.18 			"/>
			<path class="st0" d="M386.78,127.98c-9.6,0-13.92-4.8-13.92-11.04l0.48-0.48h5.76l0.48,0.48c0,3.36,1.92,5.28,7.68,5.28
				c4.32,0,6.72-1.44,6.72-4.32c0-3.36-1.92-4.32-8.64-5.28c-6.72-0.96-12-3.36-12-10.08c0-4.8,3.84-9.12,12.96-9.12
				c9.12,0,12.96,4.32,12.96,10.08l-0.48,0.48h-5.76l-0.48-0.48c0-2.88-1.44-4.32-6.72-4.32c-4.32,0-5.76,1.44-5.76,3.36
				c0,2.88,1.92,3.84,8.64,4.8c6.72,0.96,12,3.84,12,10.56C400.7,123.18,396.86,127.98,386.78,127.98"/>
			<polygon class="st0" points="164.06,87.02 164.54,87.5 168.86,87.5 169.34,87.02 169.34,82.22 158.3,54.38 157.82,53.9 
				151.58,53.9 151.1,54.38 140.06,82.22 140.06,87.02 140.54,87.5 144.86,87.5 145.34,87.02 154.46,62.54 154.94,62.54 			"/>
			<path class="st0" d="M194.78,73.58v0.48l6.24,8.16v4.8l-0.48,0.48h-2.88l-0.96-0.48l-9.6-12.48l-0.96-0.48h-4.8l-0.48,0.48v12.48
				l-0.48,0.48h-5.76l-0.48-0.48V54.38l0.48-0.48h15.84c6.72,0,11.52,3.36,11.52,10.08C201.98,69.26,198.62,72.62,194.78,73.58
				 M190.46,59.66h-9.12l-0.48,0.48v7.68l0.48,0.48h9.12c2.88,0,4.8-0.96,4.8-4.32C195.26,60.62,193.34,59.66,190.46,59.66"/>
			<path class="st0" d="M224.06,87.5h-16.32l-0.48-0.48V54.38l0.48-0.48h15.36c4.8,0,9.6,2.4,9.6,8.64c0,3.36-1.44,6.24-4.8,7.2
				v0.48c3.84,0.96,5.76,3.84,5.76,8.16C233.66,85.1,228.86,87.5,224.06,87.5 M222.14,59.66h-7.68l-0.48,0.48v6.72l0.48,0.48h7.68
				c2.88,0,3.84-1.92,3.84-3.84C225.98,61.1,225.02,59.66,222.14,59.66 M222.14,73.1h-7.68l-0.48,0.48v7.68l0.48,0.48h7.68
				c3.36,0,4.8-1.44,4.8-4.32S225.5,73.1,222.14,73.1"/>
			<path class="st0" d="M261.06,60.79l5.55,9.61v0.56l-5.55,9.61l-0.48,0.28h-11.1L249,80.57l-5.55-9.61V70.4l5.55-9.61l0.48-0.28
				h11.1L261.06,60.79z M264.4,53.9h-18.74l-0.48,0.28l-9.37,16.23v0.56l9.37,16.23l0.48,0.28h18.74l0.48-0.28l9.37-16.23V70.4
				l-9.37-16.23L264.4,53.9z"/>
		</g>
		<g>
			<polygon class="st0" points="86.35,94.38 85.87,93.9 83.47,93.9 82.99,94.38 70.99,125.58 70.99,127.02 71.47,127.5 72.91,127.5 
				73.39,127.02 84.43,98.22 84.91,98.22 95.95,127.02 96.43,127.5 97.87,127.5 98.35,127.02 98.35,125.58 			"/>
			<polygon class="st0" points="82.99,70.02 83.47,70.5 85.87,70.5 86.35,70.02 98.35,38.82 98.35,37.38 97.87,36.9 96.43,36.9 
				95.95,37.38 84.91,66.18 84.43,66.18 73.39,37.38 72.91,36.9 71.47,36.9 70.99,37.38 70.99,38.82 			"/>
			<polygon class="st0" points="74.87,74.78 75.55,74.78 77.25,73.08 77.25,72.4 63.67,41.85 62.65,40.83 61.97,40.83 60.96,41.85 
				60.95,42.53 73.51,70.7 73.18,71.04 45,58.48 44.32,58.48 43.3,59.5 43.3,60.18 44.32,61.2 			"/>
			<polygon class="st0" points="94.47,89.62 93.79,89.62 92.09,91.32 92.09,92 105.67,122.55 106.69,123.57 107.37,123.57 
				108.39,122.55 108.39,121.87 95.83,93.7 96.17,93.36 124.34,105.92 125.02,105.92 126.04,104.9 126.04,104.22 125.02,103.2 			
				"/>
			<polygon class="st0" points="72.49,83.88 72.97,83.4 72.97,81 72.49,80.52 41.29,68.52 39.85,68.52 39.37,69 39.37,70.44 
				39.85,70.92 68.65,81.96 68.65,82.44 39.85,93.48 39.37,93.96 39.37,95.4 39.85,95.88 41.29,95.88 			"/>
			<polygon class="st0" points="96.85,80.52 96.37,81 96.37,83.4 96.85,83.88 128.05,95.88 129.49,95.88 129.97,95.4 129.97,93.96 
				129.49,93.48 100.69,82.44 100.69,81.96 129.49,70.92 129.97,70.44 129.97,69 129.49,68.52 128.05,68.52 			"/>
			<polygon class="st0" points="92.09,72.4 92.09,73.08 93.79,74.78 94.47,74.78 125.02,61.2 126.04,60.18 126.04,59.5 
				125.02,58.48 124.34,58.48 96.17,71.04 95.83,70.7 108.39,42.53 108.39,41.85 107.37,40.83 106.69,40.83 105.67,41.85 			"/>
			<polygon class="st0" points="77.25,92 77.25,91.32 75.55,89.62 74.87,89.62 44.32,103.2 43.3,104.22 43.3,104.9 44.32,105.92 
				45,105.92 73.18,93.36 73.51,93.7 60.95,121.87 60.96,122.55 61.97,123.57 62.65,123.57 63.67,122.55 			"/>
		</g>
	</g>
</g>
</svg>
